<?xml version="1.0" standalone="no"?>
<!DOCTYPE svg PUBLIC "-//W3C//DTD SVG 20010904//EN"
 "http://www.w3.org/TR/2001/REC-SVG-20010904/DTD/svg10.dtd">
<svg version="1.0" xmlns="http://www.w3.org/2000/svg"
 width="400.000000pt" height="400.000000pt" viewBox="0 0 400.000000 400.000000"
 preserveAspectRatio="xMidYMid meet">
<metadata>
Created by potrace 1.14, written by Peter Selinger 2001-2017
</metadata>
<g transform="translate(0.000000,400.000000) scale(0.100000,-0.100000)"
fill="#000000" stroke="none">
<path d="M0 2000 l0 -2000 2000 0 2000 0 0 2000 0 2000 -2000 0 -2000 0 0
-2000z m1335 1770 c39 -6 204 -46 368 -90 l297 -80 298 80 c323 87 426 105
516 95 166 -18 259 -105 303 -282 25 -102 24 -468 -1 -578 -23 -103 -81 -225
-139 -296 l-46 -56 52 -34 c63 -41 109 -113 133 -208 14 -56 18 -132 21 -492
4 -394 3 -426 -13 -440 -28 -23 -416 -120 -431 -107 -10 8 -13 96 -13 402 0
417 -3 451 -48 499 -22 23 -34 27 -79 27 -30 0 -83 -7 -118 -16 l-65 -16 0
-487 c0 -267 -4 -492 -9 -500 -10 -16 -311 -101 -359 -101 -18 0 -101 18 -183
40 -83 22 -152 40 -154 40 -2 0 -11 7 -19 16 -14 14 -16 73 -16 503 l0 489
-65 16 c-35 9 -88 16 -118 16 -45 0 -57 -4 -79 -27 -45 -48 -48 -82 -48 -499
0 -309 -3 -394 -13 -402 -15 -13 -403 84 -431 107 -16 13 -17 47 -13 440 3
361 6 436 21 492 24 95 70 167 132 208 l52 34 -46 56 c-58 71 -115 193 -138
296 -25 110 -26 476 -1 578 55 225 199 313 452 277z m-399 -2955 c68 -28 80
-131 18 -171 l-24 -16 30 -43 c35 -51 36 -55 12 -55 -10 0 -32 20 -50 45 -30
43 -34 45 -82 45 l-50 0 0 -45 c0 -38 -3 -45 -20 -45 -19 0 -20 7 -20 150 l0
150 75 0 c44 0 90 -6 111 -15z m444 -5 c0 -18 -7 -20 -85 -20 l-85 0 0 -45 0
-44 77 -3 c65 -3 78 -6 81 -20 3 -16 -6 -18 -77 -18 l-81 0 0 -50 0 -50 90 0
c73 0 90 -3 90 -15 0 -12 -19 -15 -110 -15 l-110 0 0 150 0 150 105 0 c98 0
105 -1 105 -20z m372 2 c22 -22 -4 -32 -49 -19 -48 12 -89 3 -107 -25 -18 -29
4 -51 72 -73 34 -11 71 -28 82 -38 28 -24 27 -77 -3 -105 -49 -46 -188 -34
-195 16 -3 23 -3 23 27 8 38 -20 124 -21 141 -2 6 8 10 25 8 38 -2 19 -16 27
-73 45 -76 25 -105 50 -105 92 0 30 15 52 45 70 25 14 141 9 157 -7z m228 -47
l0 -65 90 0 90 0 0 65 c0 58 2 65 20 65 19 0 20 -7 20 -150 0 -143 -1 -150
-20 -150 -18 0 -20 7 -20 65 l0 65 -90 0 -90 0 0 -65 c0 -58 -2 -65 -20 -65
-19 0 -20 7 -20 150 0 143 1 150 20 150 18 0 20 -7 20 -65z m515 -42 c33 -56
62 -103 65 -103 3 0 33 47 65 105 86 151 95 146 95 -45 0 -142 -1 -150 -20
-150 -18 0 -20 8 -22 106 l-3 105 -54 -90 c-29 -50 -57 -91 -61 -91 -4 0 -32
41 -61 91 l-54 90 -3 -105 c-2 -98 -4 -106 -22 -106 -19 0 -20 8 -20 151 0
186 7 189 95 42z m615 -29 c80 -176 76 -164 51 -164 -14 0 -25 11 -35 35 l-15
35 -85 0 -84 0 -12 -35 c-8 -24 -18 -35 -31 -35 -10 0 -19 3 -19 6 0 6 37 90
99 227 45 101 55 95 131 -69z m-1950 -334 c26 -26 26 -66 0 -82 -19 -12 -19
-13 1 -45 11 -18 16 -33 10 -33 -5 0 -18 14 -28 30 -14 24 -24 30 -50 30 -30
0 -33 -3 -33 -30 0 -16 -4 -30 -10 -30 -6 0 -10 37 -10 90 l0 90 50 0 c37 0
55 -5 70 -20z m235 -65 c21 -47 35 -88 32 -91 -3 -4 -12 5 -18 20 -11 23 -18
26 -61 26 -42 0 -50 -3 -60 -25 -10 -22 -28 -35 -28 -20 0 15 80 175 88 175 5
0 26 -38 47 -85z m255 75 c22 -14 6 -22 -24 -11 -50 19 -96 -14 -96 -69 0 -49
26 -72 77 -68 35 3 38 6 41 36 2 17 8 32 13 32 6 0 9 -17 7 -37 -3 -32 -7 -39
-35 -46 -67 -20 -123 19 -123 85 0 53 35 88 87 88 21 0 45 -4 53 -10z m150
-30 l0 -40 55 0 55 0 0 40 c0 22 5 40 10 40 6 0 10 -37 10 -90 0 -53 -4 -90
-10 -90 -5 0 -10 18 -10 40 l0 40 -55 0 -55 0 0 -40 c0 -22 -4 -40 -10 -40 -6
0 -10 37 -10 90 0 53 4 90 10 90 6 0 10 -18 10 -40z m355 -45 c21 -47 35 -88
32 -91 -3 -4 -12 5 -18 20 -11 23 -18 26 -61 26 -42 0 -50 -3 -60 -25 -10 -22
-28 -35 -28 -20 0 15 80 175 88 175 5 0 26 -38 47 -85z m150 6 l32 -73 26 55
c14 30 28 65 32 76 6 18 25 30 25 15 0 -14 -74 -174 -81 -174 -11 0 -14 6 -54
100 -19 45 -30 80 -23 78 6 -2 26 -37 43 -77z m301 22 c51 -113 54 -123 44
-123 -6 0 -15 11 -20 25 -8 22 -15 25 -60 25 -45 0 -52 -3 -60 -25 -5 -14 -14
-25 -20 -25 -6 0 -5 12 4 33 47 108 67 147 76 147 6 0 22 -26 36 -57z m214
-13 l55 -71 3 71 c2 38 7 70 12 70 13 0 13 -167 1 -175 -5 -3 -35 27 -65 67
l-56 71 0 -71 c0 -41 -4 -72 -10 -72 -6 0 -10 37 -10 90 0 50 3 90 8 90 4 0
32 -32 62 -70z"/>
<path d="M2460 3652 c-102 -27 -240 -64 -307 -82 l-123 -33 0 -1183 c0 -650 3
-1185 8 -1187 4 -2 64 12 135 31 l127 35 0 493 c0 473 1 494 19 503 32 18 211
61 250 61 62 0 122 -38 151 -95 l25 -50 3 -392 c3 -363 4 -393 20 -392 9 0 80
17 157 37 l140 37 3 340 c3 362 -5 468 -40 563 -27 73 -88 135 -148 153 -47
13 -70 26 -70 39 0 5 33 42 74 83 86 87 138 182 162 297 23 111 16 524 -10
595 -27 74 -71 131 -124 162 -42 25 -57 28 -157 31 -104 2 -120 0 -295 -46z
m230 -287 c53 -51 62 -106 58 -348 -5 -240 -13 -276 -78 -349 -21 -24 -60 -56
-87 -71 -50 -27 -219 -77 -260 -77 l-23 0 0 399 c0 307 3 401 13 409 6 5 62
24 122 41 142 39 211 38 255 -4z"/>
<path d="M2500 3314 c-30 -8 -72 -20 -92 -25 l-38 -10 0 -340 0 -341 28 6
c147 35 215 76 255 149 20 39 22 59 25 243 4 207 -3 263 -36 303 -23 28 -74
34 -142 15z"/>
<path d="M1383 3320 c-12 -5 -30 -24 -40 -42 -16 -29 -18 -60 -18 -258 0 -213
1 -227 22 -267 40 -73 109 -114 256 -149 l27 -6 0 341 0 340 -37 10 c-174 45
-174 45 -210 31z"/>
<path d="M792 723 l3 -68 42 -3 c92 -7 148 50 105 107 -17 23 -27 26 -86 29
l-67 3 3 -68z"/>
<path d="M2996 718 c-14 -35 -26 -69 -26 -75 0 -9 19 -13 60 -13 34 0 60 4 60
10 0 13 -57 140 -63 140 -2 0 -16 -28 -31 -62z"/>
<path d="M1060 319 l0 -40 48 3 c40 3 47 6 50 26 5 34 -15 52 -59 52 -39 0
-39 0 -39 -41z"/>
<path d="M1327 315 c-9 -20 -17 -38 -17 -40 0 -3 16 -5 35 -5 19 0 35 5 35 10
0 11 -28 70 -33 70 -2 0 -11 -16 -20 -35z"/>
<path d="M2087 315 c-9 -20 -17 -38 -17 -40 0 -3 16 -5 35 -5 19 0 35 5 35 10
0 11 -28 70 -33 70 -2 0 -11 -16 -20 -35z"/>
<path d="M2547 310 l-15 -40 38 0 38 0 -15 40 c-9 22 -19 40 -23 40 -4 0 -14
-18 -23 -40z"/>
</g>
</svg>
